<svg width="157" height="38" viewBox="0 0 157 38" fill="none" xmlns="http://www.w3.org/2000/svg">
<path d="M0.815002 19C0.815002 15.288 1.56167 12.0453 3.055 9.27199C4.591 6.49866 6.703 4.36532 9.391 2.87199C12.1217 1.37866 15.2363 0.631989 18.735 0.631989C23.215 0.631989 26.9483 1.80532 29.935 4.15199C32.9643 6.49866 34.9483 9.80532 35.887 14.072H24.239C23.2577 11.3413 21.359 9.97599 18.543 9.97599C16.5377 9.97599 14.9377 10.7653 13.743 12.344C12.5483 13.88 11.951 16.0987 11.951 19C11.951 21.9013 12.5483 24.1413 13.743 25.72C14.9377 27.256 16.5377 28.024 18.543 28.024C21.359 28.024 23.2577 26.6587 24.239 23.928H35.887C34.9483 28.1093 32.9643 31.3947 29.935 33.784C26.9057 36.1733 23.1723 37.368 18.735 37.368C15.2363 37.368 12.1217 36.6213 9.391 35.128C6.703 33.6347 4.591 31.5013 3.055 28.728C1.56167 25.9547 0.815002 22.712 0.815002 19Z" fill="#21333D"/>
<path d="M57.997 37.368C54.4983 37.368 51.341 36.6213 48.525 35.128C45.7517 33.6347 43.5543 31.5013 41.933 28.728C40.3543 25.9547 39.565 22.712 39.565 19C39.565 15.3307 40.3757 12.1093 41.997 9.33599C43.6183 6.51999 45.837 4.36532 48.653 2.87199C51.469 1.37866 54.6263 0.631989 58.125 0.631989C61.6237 0.631989 64.781 1.37866 67.597 2.87199C70.413 4.36532 72.6317 6.51999 74.253 9.33599C75.8743 12.1093 76.685 15.3307 76.685 19C76.685 22.6693 75.853 25.912 74.189 28.728C72.5677 31.5013 70.3277 33.6347 67.469 35.128C64.653 36.6213 61.4957 37.368 57.997 37.368ZM57.997 27.896C60.0877 27.896 61.8583 27.128 63.309 25.592C64.8023 24.056 65.549 21.8587 65.549 19C65.549 16.1413 64.8237 13.944 63.373 12.408C61.965 10.872 60.2157 10.104 58.125 10.104C55.9917 10.104 54.221 10.872 52.813 12.408C51.405 13.9013 50.701 16.0987 50.701 19C50.701 21.8587 51.3837 24.056 52.749 25.592C54.157 27.128 55.9063 27.896 57.997 27.896Z" fill="#21333D"/>
<path d="M80.315 19C80.315 15.288 81.0617 12.0453 82.555 9.27199C84.091 6.49866 86.203 4.36532 88.891 2.87199C91.6217 1.37866 94.7363 0.631989 98.235 0.631989C102.715 0.631989 106.448 1.80532 109.435 4.15199C112.464 6.49866 114.448 9.80532 115.387 14.072H103.739C102.758 11.3413 100.859 9.97599 98.043 9.97599C96.0377 9.97599 94.4377 10.7653 93.243 12.344C92.0483 13.88 91.451 16.0987 91.451 19C91.451 21.9013 92.0483 24.1413 93.243 25.72C94.4377 27.256 96.0377 28.024 98.043 28.024C100.859 28.024 102.758 26.6587 103.739 23.928H115.387C114.448 28.1093 112.464 31.3947 109.435 33.784C106.406 36.1733 102.672 37.368 98.235 37.368C94.7363 37.368 91.6217 36.6213 88.891 35.128C86.203 33.6347 84.091 31.5013 82.555 28.728C81.0617 25.9547 80.315 22.712 80.315 19Z" fill="#21333D"/>
<path d="M137.497 37.368C133.998 37.368 130.841 36.6213 128.025 35.128C125.252 33.6347 123.054 31.5013 121.433 28.728C119.854 25.9547 119.065 22.712 119.065 19C119.065 15.3307 119.876 12.1093 121.497 9.33599C123.118 6.51999 125.337 4.36532 128.153 2.87199C130.969 1.37866 134.126 0.631989 137.625 0.631989C141.124 0.631989 144.281 1.37866 147.097 2.87199C149.913 4.36532 152.132 6.51999 153.753 9.33599C155.374 12.1093 156.185 15.3307 156.185 19C156.185 22.6693 155.353 25.912 153.689 28.728C152.068 31.5013 149.828 33.6347 146.969 35.128C144.153 36.6213 140.996 37.368 137.497 37.368ZM137.497 27.896C139.588 27.896 141.358 27.128 142.809 25.592C144.302 24.056 145.049 21.8587 145.049 19C145.049 16.1413 144.324 13.944 142.873 12.408C141.465 10.872 139.716 10.104 137.625 10.104C135.492 10.104 133.721 10.872 132.313 12.408C130.905 13.9013 130.201 16.0987 130.201 19C130.201 21.8587 130.884 24.056 132.249 25.592C133.657 27.128 135.406 27.896 137.497 27.896Z" fill="#21333D"/>
</svg>
